<!DOCTYPE svg PUBLIC "-//W3C//DTD SVG 1.1//EN" "http://www.w3.org/Graphics/SVG/1.1/DTD/svg11.dtd">
<!-- Uploaded to: SVG Repo, www.svgrepo.com, Transformed by: SVG Repo Mixer Tools -->
<svg width="800px" height="800px" viewBox="0 0 20 20" version="1.1" xmlns="http://www.w3.org/2000/svg" xmlns:xlink="http://www.w3.org/1999/xlink" fill="#000000">
<g id="SVGRepo_bgCarrier" stroke-width="0"/>
<g id="SVGRepo_tracerCarrier" stroke-linecap="round" stroke-linejoin="round"/>
<g id="SVGRepo_iconCarrier"> <title>game_controller_round [#<!-- Uploaded to: SVG Repo, www.svgrepo.com, Transformed by: SVG Repo Mixer Tools -->
<svg viewBox="0 0 32 32" version="1.1" xmlns="http://www.w3.org/2000/svg" xmlns:xlink="http://www.w3.org/1999/xlink" xmlns:sketch="http://www.bohemiancoding.com/sketch/ns" fill="" stroke="">
<g id="SVGRepo_bgCarrier" stroke-width="0"/>
<g id="SVGRepo_tracerCarrier" stroke-linecap="round" stroke-linejoin="round"/>
<g id="SVGRepo_iconCarrier"> <title>cart-2</title> <desc>Created with Sketch Beta.</desc> <defs> </defs> <g id="Page-1" stroke="none" stroke-width="1" fill="none" fill-rule="evenodd" sketch:type="MSPage"> <g id="Icon-Set" sketch:type="MSLayerGroup" transform="translate(-516.000000, -723.000000)" fill="#f95959"> <path d="M538,749 C539.104,749 540,749.896 540,751 C540,752.104 539.104,753 538,753 C536.896,753 536,752.104 536,751 C536,749.896 536.896,749 538,749 L538,749 Z M534,751 C534,753.209 535.791,755 538,755 C540.209,755 542,753.209 542,751 C542,748.791 540.209,747 538,747 C535.791,747 534,748.791 534,751 L534,751 Z M522,729 L546,729 L543.443,739.229 L522,741 L522,729 L522,729 Z M524,745 C522.896,745 522,744.104 522,743 L545,741 C545,741 548,728.875 548,728 C548,727.447 547.553,727 547,727 L522,727 L522,725 L523,725 C523.553,725 524,724.553 524,724 C524,723.448 523.553,723 523,723 L517,723 C516.447,723 516,723.448 516,724 C516,724.553 516.447,725 517,725 L520,725 L520,743 C520,745.209 521.791,747 524,747 L547,747 C547.031,747 547,746.009 547,745 L524,745 L524,745 Z M526,749 C527.104,749 528,749.896 528,751 C528,752.104 527.104,753 526,753 C524.896,753 524,752.104 524,751 C524,749.896 524.896,749 526,749 L526,749 Z M522,751 C522,753.209 523.791,755 526,755 C528.209,755 530,753.209 530,751 C530,748.791 528.209,747 526,747 C523.791,747 522,748.791 522,751 L522,751 Z" id="cart-2" sketch:type="MSShapeGroup"> </path> </g> </g> </g>
</svg>]</title> <desc>Created with Sketch.</desc> <defs> </defs> <g id="Page-1" stroke="none" stroke-width="1" fill="none" fill-rule="evenodd"> <g id="Dribbble-Light-Preview" transform="translate(-420.000000, -4679.000000)" fill="#f95959"> <g id="icons" transform="translate(56.000000, 160.000000)"> <path d="M382,4528 C382,4527.448 381.552,4527 381,4527 L367,4527 C366.448,4527 366,4527.448 366,4528 L366,4536 C366,4536.552 366.448,4537 367,4537 L369,4537 C369.552,4537 370,4536.552 370,4536 C370,4535.448 370.448,4535 371,4535 L377,4535 C377.552,4535 378,4535.448 378,4536 C378,4536.552 378.448,4537 379,4537 L381,4537 C381.552,4537 382,4536.552 382,4536 L382,4528 Z M384,4527 L384,4537 C384,4538.105 383.105,4539 382,4539 L378,4539 C376.895,4539 376,4538.105 376,4537 L372,4537 C372,4538.105 371.105,4539 370,4539 L366,4539 C364.895,4539 364,4538.105 364,4537 L364,4527 C364,4525.895 364.895,4525 366,4525 L373,4525 L373,4523 C373,4521.895 373.895,4521 375,4521 L377,4521 C377.552,4521 378,4520.552 378,4520 L378,4519 L380,4519 L380,4521 C380,4522.105 379.105,4523 378,4523 L376,4523 C375.448,4523 375,4523.448 375,4524 L375,4525 L382,4525 C383.105,4525 384,4525.895 384,4527 L384,4527 Z M379,4529 L377,4529 C376.448,4529 376,4529.448 376,4530 L376,4531 L376,4532 C376,4532.552 376.448,4533 377,4533 L379,4533 C379.552,4533 380,4532.552 380,4532 L380,4531 L380,4530 C380,4529.448 379.552,4529 379,4529 L379,4529 Z M372,4530 L372,4531 L372,4532 C372,4532.552 371.552,4533 371,4533 L369,4533 C368.448,4533 368,4532.552 368,4532 L368,4531 L368,4530 C368,4529.448 368.448,4529 369,4529 L371,4529 C371.552,4529 372,4529.448 372,4530 L372,4530 Z" id="game_controller_round-[#&lt;svg viewBox=" 0="" 32="" 32"="" version="1.1" xmlns="http://www.w3.org/2000/svg" xmlns:xlink="http://www.w3.org/1999/xlink" xmlns:sketch="http://www.bohemiancoding.com/sketch/ns" fill="" stroke="">
<g id="SVGRepo_bgCarrier" stroke-width="0"/>
<g id="SVGRepo_tracerCarrier" stroke-linecap="round" stroke-linejoin="round"/>
<g id="SVGRepo_iconCarrier"> <title>cart-2</title> <desc>Created with Sketch Beta.</desc> <defs> </defs> <g id="Page-1" stroke="none" stroke-width="1" fill="none" fill-rule="evenodd" sketch:type="MSPage"> <g id="Icon-Set" sketch:type="MSLayerGroup" transform="translate(-516.000000, -723.000000)" fill="#f95959"> <path d="M538,749 C539.104,749 540,749.896 540,751 C540,752.104 539.104,753 538,753 C536.896,753 536,752.104 536,751 C536,749.896 536.896,749 538,749 L538,749 Z M534,751 C534,753.209 535.791,755 538,755 C540.209,755 542,753.209 542,751 C542,748.791 540.209,747 538,747 C535.791,747 534,748.791 534,751 L534,751 Z M522,729 L546,729 L543.443,739.229 L522,741 L522,729 L522,729 Z M524,745 C522.896,745 522,744.104 522,743 L545,741 C545,741 548,728.875 548,728 C548,727.447 547.553,727 547,727 L522,727 L522,725 L523,725 C523.553,725 524,724.553 524,724 C524,723.448 523.553,723 523,723 L517,723 C516.447,723 516,723.448 516,724 C516,724.553 516.447,725 517,725 L520,725 L520,743 C520,745.209 521.791,747 524,747 L547,747 C547.031,747 547,746.009 547,745 L524,745 L524,745 Z M526,749 C527.104,749 528,749.896 528,751 C528,752.104 527.104,753 526,753 C524.896,753 524,752.104 524,751 C524,749.896 524.896,749 526,749 L526,749 Z M522,751 C522,753.209 523.791,755 526,755 C528.209,755 530,753.209 530,751 C530,748.791 528.209,747 526,747 C523.791,747 522,748.791 522,751 L522,751 Z" id="cart-2" sketch:type="MSShapeGroup"> </path> </g> </g> </g>]"&gt; </path> </g> </g> </g> </g>
</svg>